<svg width="116" height="195" viewBox="0 0 116 195" fill="none" xmlns="http://www.w3.org/2000/svg">
<rect y="140" width="116" height="55" rx="10" fill="#26272B"/>
<rect y="134" width="116" height="55" rx="10" fill="#437FF3"/>
<rect x="8" y="36" width="11" height="86" fill="#FCFCFC"/>
<rect x="10" y="122" width="7" height="5" fill="black"/>
<rect x="8" y="23" width="11" height="13" fill="black"/>
<rect x="6" y="4" width="15" height="19" fill="black"/>
<rect x="8" width="11" height="4" fill="#B1B1B1"/>
<rect x="94" y="36" width="11" height="86" fill="#FCFCFC"/>
<rect x="96" y="122" width="7" height="5" fill="#4ADC6A"/>
<rect x="94" y="23" width="11" height="13" fill="#4ADC6A"/>
<rect x="92" y="4" width="15" height="19" fill="#4ADC6A"/>
<rect x="94" width="11" height="4" fill="#B1B1B1"/>
<rect x="63" y="36" width="11" height="86" fill="#FCFCFC"/>
<rect x="65" y="122" width="7" height="5" fill="#437FF3"/>
<rect x="63" y="23" width="11" height="13" fill="#437FF3"/>
<rect x="61" y="4" width="15" height="19" fill="#437FF3"/>
<rect x="63" width="11" height="4" fill="#B1B1B1"/>
<rect x="36" y="36" width="11" height="86" fill="#FCFCFC"/>
<rect x="38" y="122" width="7" height="5" fill="#F84848"/>
<rect x="36" y="23" width="11" height="13" fill="#F84848"/>
<rect x="34" y="4" width="15" height="19" fill="#F84848"/>
<rect x="36" width="11" height="4" fill="#B1B1B1"/>
</svg>